<?xml version="1.0" encoding="utf-8"?>
<!-- Generator: Adobe Illustrator 24.1.2, SVG Export Plug-In . SVG Version: 6.00 Build 0)  -->
<svg version="1.1" id="Layer_1" xmlns="http://www.w3.org/2000/svg" xmlns:xlink="http://www.w3.org/1999/xlink" x="0px" y="0px"
	 viewBox="0 0 651.1 311" style="enable-background:new 0 0 651.1 311;" xml:space="preserve">
<g>
	<g>
		<rect width="103" height="309"/>
		<rect x="144.2" width="103" height="209.2"/>
	</g>
	<g>
		<path d="M212.7,271.9c0,14.1-11.1,21-27.8,21h-20.5v16.2h-20.3v-58.2h40.8C201.6,250.9,212.7,257.8,212.7,271.9z M192.2,272.4
			c0-5.2-3.7-6.9-9-6.9h-18.9v13.9h18.9C188.5,279.3,192.2,277.5,192.2,272.4z"/>
		<path d="M284.3,294.5v14.6h-63.9v-58.2h63v14.6h-43.1v7.4h35.1v13.5h-35.1v8.1H284.3z"/>
		<path d="M341.4,309.1L327.2,292h-13.6v17.1h-20.1v-58.2h41.3c15.5,0,27.8,6.6,27.8,20.5c0,9.6-5.8,15.7-14.5,18.6l16.4,19H341.4z
			 M333.1,278.4c5.2,0,9-1.5,9-6.5s-3.7-6.5-9-6.5h-19.5v13H333.1z"/>
		<path d="M392.5,266.1v8.8h35.1v14.8h-35.1v19.4h-20.3v-58.2h62.7v15.2H392.5z"/>
		<path d="M506.6,294.5v14.6h-63.9v-58.2h63v14.6h-43.1v7.4h35.1v13.5h-35.1v8.1H506.6z"/>
		<path d="M565.8,286.7l16.7,8.8c-5.2,8.8-17.4,15.5-33.6,15.5c-22,0-37.3-11.1-37.3-31c0-19.9,15.3-31,38.1-31
			c15.4,0,27.5,6.7,32.6,15.4l-16.8,8.7c-3.6-5.6-9.1-8.2-16-8.2c-10.3,0-17.3,5.5-17.3,15.1c0,9.6,7,15.1,17.3,15.1
			C556.5,295.1,562,292.6,565.8,286.7z"/>
		<path d="M651.1,266.3h-23v42.8h-20.3v-42.8h-22.9v-15.4h66.2V266.3z"/>
	</g>
</g>
</svg>
